<svg xmlns="http://www.w3.org/2000/svg" width="700" height="595" viewBox="0 0 700 595" role="img" aria-label="Pro-versionens sökning med originalfråga och omskrivning">
<defs><marker id="pil" viewBox="0 0 10 10" refX="9" refY="5" markerWidth="7" markerHeight="7" orient="auto-start-reverse"><path d="M 0 0 L 10 5 L 0 10 z" fill="#64748b"/></marker></defs>
<rect width="700" height="595" rx="18" fill="#f1f5f9"/>
<g fill="none" stroke="#64748b" stroke-width="2" marker-end="url(#pil)">
<path d="M 265 75 L 155 130"/><path d="M 435 75 L 525 130"/>
<path d="M 525 180 L 525 220"/><path d="M 155 180 L 155 295 L 255 340"/>
<path d="M 525 270 L 525 295 L 445 340"/>
<path d="M 350 390 L 350 425"/><path d="M 350 475 L 350 510"/>
</g><rect x="180" y="25" width="340" height="50" rx="9" fill="white" stroke="#a5b4fc"/><text x="350.0" y="56" text-anchor="middle" font-family="Arial, sans-serif" font-size="17" fill="#172554">Fråga och samtalshistorik</text><rect x="25" y="130" width="260" height="50" rx="9" fill="white" stroke="#a5b4fc"/><text x="155.0" y="161" text-anchor="middle" font-family="Arial, sans-serif" font-size="17" fill="#172554">Sök med originalfrågan</text><rect x="395" y="130" width="260" height="50" rx="9" fill="white" stroke="#a5b4fc"/><text x="525.0" y="161" text-anchor="middle" font-family="Arial, sans-serif" font-size="17" fill="#172554">Skriv om frågan</text><rect x="395" y="220" width="260" height="50" rx="9" fill="white" stroke="#a5b4fc"/><text x="525.0" y="251" text-anchor="middle" font-family="Arial, sans-serif" font-size="17" fill="#172554">Sök med omskrivningen</text><rect x="180" y="340" width="340" height="50" rx="9" fill="white" stroke="#a5b4fc"/><text x="350.0" y="371" text-anchor="middle" font-family="Arial, sans-serif" font-size="17" fill="#172554">Sammanför träffarna</text><rect x="150" y="425" width="400" height="50" rx="9" fill="white" stroke="#a5b4fc"/><text x="350.0" y="456" text-anchor="middle" font-family="Arial, sans-serif" font-size="17" fill="#172554">Omrankna mot originalfrågan</text><rect x="100" y="510" width="500" height="50" rx="9" fill="white" stroke="#a5b4fc"/><text x="350.0" y="541" text-anchor="middle" font-family="Arial, sans-serif" font-size="17" fill="#172554">Välj tio stycken och formulera svaret</text></svg>
